<svg width="248" height="248" viewBox="0 0 248 248" fill="none" xmlns="http://www.w3.org/2000/svg">
<ellipse cx="123.5" cy="124" rx="46.5" ry="54" fill="#FF2F00"/>
<path d="M204.934 131.898L227.862 81.4605L170.138 82.5395L194.935 132.085L204.934 131.898ZM205.999 188.907L204.84 126.899L194.842 127.086L196.001 189.093L205.999 188.907Z" fill="#FF2F00"/>
<path d="M48.1246 108.666C62.852 108.598 74.7352 96.6028 74.6664 81.8754C74.5976 67.148 62.6028 55.2648 47.8754 55.3336C33.148 55.4024 21.2648 67.3972 21.3336 82.1246C21.4024 96.852 33.3972 108.735 48.1246 108.666ZM53.4999 188.977L52.9999 81.9766L43.0001 82.0234L43.5001 189.023L53.4999 188.977Z" fill="#FF2F00"/>
<rect x="8.5" y="8.5" width="231" height="231" rx="63.5" stroke="#FF2F00" stroke-width="17"/>
</svg>
